<mxfile host="app.diagrams.net" modified="2024-01-23T08:52:59.557Z" agent="Mozilla/5.0 (Macintosh; Intel Mac OS X 10_15_7) AppleWebKit/537.36 (KHTML, like Gecko) Chrome/114.0.0.0 Safari/537.36" version="22.1.21" etag="qgVtVfjOyQH2V-p-HFJD" type="github">
  <diagram name="Page-1" id="ln_JQyqXAKiikmq_UhCY">
    <mxGraphModel>
      <root>
        <mxCell id="0" />
        <mxCell id="1" parent="0" />
      </root>
    </mxGraphModel>
  </diagram>
</mxfile>
